<svg xmlns="http://www.w3.org/2000/svg" xmlns:svgjs="http://svgjs.com/svgjs" xmlns:xlink="http://www.w3.org/1999/xlink" width="288" height="288"><svg xmlns="http://www.w3.org/2000/svg" width="288" height="288" viewBox="0 0 350 300"><rect width="350" height="300" fill="#fff" class="color2ec06f svgShape"/><path fill="#21628d" d="M0 0L5.3 3.8C10.7 7.7 21.3 15.3 32 15.8C42.7 16.3 53.3 9.7 63.8 5.8C74.3 2 84.7 1 95.2 5.3C105.7 9.7 116.3 19.3 127 21.2C137.7 23 148.3 17 159 13C169.7 9 180.3 7 191 9.3C201.7 11.7 212.3 18.3 223 18.8C233.7 19.3 244.3 13.7 254.8 13.8C265.3 14 275.7 20 286.2 21.2C296.7 22.3 307.3 18.7 318 14.3C328.7 10 339.3 5 344.7 2.5L350 0L350 0L344.7 0C339.3 0 328.7 0 318 0C307.3 0 296.7 0 286.2 0C275.7 0 265.3 0 254.8 0C244.3 0 233.7 0 223 0C212.3 0 201.7 0 191 0C180.3 0 169.7 0 159 0C148.3 0 137.7 0 127 0C116.3 0 105.7 0 95.2 0C84.7 0 74.3 0 63.8 0C53.3 0 42.7 0 32 0C21.3 0 10.7 0 5.3 0L0 0Z" class="colorFFF svgShape"/></svg></svg>