<?xml version="1.0" encoding="UTF-8"?>
<svg width="1419px" height="439px" viewBox="0 0 1419 439" version="1.1" xmlns="http://www.w3.org/2000/svg" xmlns:xlink="http://www.w3.org/1999/xlink">
    <title>logo-purple</title>
    <g id="Page-1" stroke="none" stroke-width="1" fill="none" fill-rule="evenodd">
        <g id="Logo-Paxel-2021-(raw)" transform="translate(-40.000000, -530.000000)">
            <g id="Group-4" transform="translate(40.000000, 530.000000)">
                <g id="Group-3" transform="translate(1.338700, 1.285000)">
                    <path d="M311.7077,90.9005 C311.4557,90.6235 311.2397,90.2745 310.9517,89.9795 L236.5337,15.5505 C232.0567,11.0585 224.8007,11.0585 220.3407,15.5505 C215.8237,20.0345 215.8237,27.3015 220.3407,31.7395 L252.0427,63.5315 L252.0427,83.7775 L229.1127,83.7775 L229.1127,106.7085 L285.1237,106.7085 C302.0007,106.7085 315.7567,120.4215 315.7567,137.3595 L315.7567,282.2215 C315.7567,287.2535 314.5157,291.9285 312.3487,296.1465 L117.2087,100.9825 C112.7237,96.5045 105.4817,96.5045 100.9907,100.9825 C96.4987,105.4555 96.4987,112.7125 100.9907,117.1895 L295.0187,311.2125 C291.8947,312.2755 288.5717,312.8765 285.1237,312.8765 L140.2617,312.8765 C123.3627,312.8765 109.5847,299.1095 109.5847,282.2215 L109.5847,229.1145 L98.1437,229.1145 L98.1287,229.1145 L86.6577,229.1145 L86.6577,240.5675 L86.6577,272.7805 L86.6577,272.8015 L86.6577,285.9005 C86.6577,286.9585 86.8487,287.9875 87.1367,289.0205 C87.4677,291.5405 87.9647,294.0385 88.6777,296.4665 L89.5627,307.3795 L98.4527,315.7455 C98.4887,315.7885 98.5637,315.8355 98.6147,315.9035 C108.4617,328.0365 123.4537,335.8035 140.2617,335.8035 L285.1237,335.8035 C298.7717,335.8035 311.2107,330.6205 320.6917,322.1475 C320.9617,321.9175 321.2677,321.7305 321.5087,321.4785 C321.5737,321.4105 321.6457,321.2985 321.7247,321.1835 C332.1477,311.4185 338.7087,297.5765 338.7087,282.2215 L338.7087,137.3595 C338.7087,117.5095 327.7817,100.1755 311.7077,90.9005" id="Fill-1" fill="#FFB003"></path>
                    <path d="M229.113,83.779 L140.259,83.779 C128.867,83.779 118.343,87.368 109.661,93.444 L41.611,25.375 C45.321,23.827 49.363,22.927 53.611,22.927 L198.462,22.927 C215.364,22.927 229.113,36.694 229.113,53.582 L229.113,83.779 Z M229.113,198.447 C229.113,215.35 215.364,229.113 198.462,229.113 L109.586,229.113 L109.586,137.358 C109.586,129.662 112.487,122.623 117.162,117.209 L117.209,117.191 C117.209,117.17 117.241,117.17 117.241,117.115 C122.889,110.745 131.066,106.71 140.259,106.71 L229.113,106.71 L229.113,198.447 Z M86.655,137.358 L86.655,229.113 L53.611,229.113 C36.705,229.113 22.981,215.35 22.981,198.447 L22.981,53.582 C22.981,49.349 23.838,45.275 25.407,41.592 L94.07,110.28 C89.394,118.203 86.655,127.456 86.655,137.358 L86.655,137.358 Z M198.462,0 L53.611,0 C39.836,0 27.333,5.273 17.813,13.864 C17.035,14.318 16.254,14.854 15.549,15.552 C14.876,16.258 14.318,17.003 13.853,17.82 C5.301,27.322 0,39.847 0,53.582 L0,198.447 C0,212.23 5.301,224.751 13.853,234.26 C14.411,235.16 14.966,235.97 15.765,236.707 L90.525,308.362 L90.525,308.249 C92.562,310.049 95.193,311.161 98.126,311.161 C104.45,311.161 109.586,306.069 109.586,299.723 L109.586,252.044 L198.462,252.044 C228.008,252.044 252.044,227.99 252.044,198.447 L252.044,53.582 C252.044,24.039 228.008,0 198.462,0 L198.462,0 Z" id="Fill-3" fill="#FF434F"></path>
                </g>
                <g id="Group-2" transform="translate(457.662300, 365.557600)" fill="#5F51A1">
                    <path d="M21.866,32.3867 C29.511,32.3867 34.278,28.1127 34.278,22.1117 L34.278,21.9477 C34.278,15.2057 29.428,11.6717 21.866,11.6717 L10.111,11.6717 L10.111,32.3867 L21.866,32.3867 Z M-5.68434189e-14,2.4657 L22.688,2.4657 C36.168,2.4657 44.553,10.1107 44.553,21.6997 L44.553,21.8657 C44.553,34.7707 34.196,41.5097 21.537,41.5097 L10.111,41.5097 L10.111,60.0057 L-5.68434189e-14,60.0057 L-5.68434189e-14,2.4657 Z" id="Fill-5"></path>
                    <path d="M79.8172,44.3867 L79.8172,41.4277 C77.2692,40.4417 73.8992,39.7017 69.9532,39.7017 C63.5412,39.7017 59.7602,42.4147 59.7602,46.9357 L59.7602,47.1007 C59.7602,51.2927 63.4592,53.6767 68.2272,53.6767 C74.8032,53.6767 79.8172,49.8947 79.8172,44.3867 M50.0612,47.5107 L50.0612,47.3467 C50.0612,37.9757 57.3762,33.3727 67.9802,33.3727 C72.8302,33.3727 76.2822,34.1127 79.6522,35.1807 L79.6522,34.1127 C79.6522,27.9477 75.8712,24.6587 68.8842,24.6587 C64.0352,24.6587 60.4182,25.7277 56.4722,27.3717 L53.8412,19.5637 C58.6092,17.4257 63.2952,16.0297 70.2002,16.0297 C76.6932,16.0297 81.5432,17.7547 84.5852,20.8777 C87.7912,24.0017 89.2702,28.6047 89.2702,34.2777 L89.2702,60.0057 L79.5702,60.0057 L79.5702,54.5797 C76.6112,58.1157 72.0902,60.9087 65.4322,60.9087 C57.2942,60.9087 50.0612,56.2237 50.0612,47.5107" id="Fill-7"></path>
                    <polygon id="Fill-9" points="101.1893 0 111.1353 0 111.1353 35.839 129.1373 16.604 141.2203 16.604 123.9593 34.277 141.7953 60.006 130.1243 60.006 117.3003 41.182 111.1353 47.594 111.1353 60.006 101.1893 60.006"></polygon>
                    <path d="M176.8123,35.2637 C176.1543,28.8517 172.3743,23.8367 165.7973,23.8367 C159.7143,23.8367 155.4403,28.5227 154.5363,35.2637 L176.8123,35.2637 Z M144.6723,38.4687 L144.6723,38.3047 C144.6723,25.8927 153.4673,15.6997 165.8793,15.6997 C179.6893,15.6997 186.6763,26.5507 186.6763,39.0437 C186.6763,39.9497 186.5943,40.8527 186.5123,41.8397 L154.6183,41.8397 C155.6873,48.9097 160.7013,52.8547 167.1133,52.8547 C171.9623,52.8547 175.4163,51.0457 178.8673,47.6757 L184.7043,52.8547 C180.5933,57.7857 174.9223,60.9927 166.9493,60.9927 C154.3723,60.9927 144.6723,51.8677 144.6723,38.4687 L144.6723,38.4687 Z" id="Fill-11"></path>
                    <path d="M198.7596,48.0039 L198.7596,25.1519 L193.2506,25.1519 L193.2506,16.6049 L198.7596,16.6049 L198.7596,4.6849 L208.7056,4.6849 L208.7056,16.6049 L220.3776,16.6049 L220.3776,25.1519 L208.7056,25.1519 L208.7056,46.4419 C208.7056,50.3059 210.6786,51.8679 214.0486,51.8679 C216.2676,51.8679 218.2406,51.3739 220.2126,50.3879 L220.2126,58.5249 C217.7476,59.9229 215.0346,60.7459 211.2536,60.7459 C203.9376,60.7459 198.7596,57.5389 198.7596,48.0039" id="Fill-13"></path>
                    <path d="M230.4881,16.6045 L240.4341,16.6045 L240.4341,23.1795 C243.2281,19.3165 247.0101,15.6995 253.6691,15.6995 C259.9161,15.6995 264.3541,18.7415 266.6561,23.3435 C270.1091,18.7415 274.7121,15.6995 281.2891,15.6995 C290.7421,15.6995 296.4951,21.7005 296.4951,32.3035 L296.4951,60.0055 L286.5501,60.0055 L286.5501,35.3455 C286.5501,28.4415 283.3421,24.7425 277.7541,24.7425 C272.3291,24.7425 268.4641,28.5225 268.4641,35.5105 L268.4641,60.0055 L258.5181,60.0055 L258.5181,35.2635 C258.5181,28.5225 255.2301,24.7425 249.7231,24.7425 C244.2161,24.7425 240.4341,28.8515 240.4341,35.5105 L240.4341,60.0055 L230.4881,60.0055 L230.4881,16.6045 Z" id="Fill-15"></path>
                    <path d="M308.0857,44.2237 L308.0857,16.6047 L318.0317,16.6047 L318.0317,41.2647 C318.0317,48.0037 321.4017,51.7857 327.3207,51.7857 C333.0757,51.7857 337.1027,47.8407 337.1027,41.0997 L337.1027,16.6047 L347.1317,16.6047 L347.1317,60.0057 L337.1027,60.0057 L337.1027,53.2647 C334.3077,57.3747 330.2797,60.9097 323.5397,60.9097 C313.7577,60.9097 308.0857,54.3327 308.0857,44.2237" id="Fill-17"></path>
                    <path d="M381.49,51.6211 L387.573,44.3871 C393.08,49.1551 398.67,51.8681 405.739,51.8681 C411.986,51.8681 415.932,48.9091 415.932,44.6341 L415.932,44.4701 C415.932,40.3591 413.63,38.1411 402.944,35.6741 C390.697,32.7151 383.792,29.0981 383.792,18.4941 L383.792,18.3301 C383.792,8.4661 392.011,1.6431 403.437,1.6431 C411.822,1.6431 418.48,4.1921 424.316,8.8771 L418.891,16.5211 C413.713,12.6581 408.534,10.6031 403.273,10.6031 C397.354,10.6031 393.902,13.6451 393.902,17.4261 L393.902,17.5911 C393.902,22.0281 396.533,24.0021 407.63,26.6331 C419.795,29.5921 426.042,33.9481 426.042,43.4831 L426.042,43.6481 C426.042,54.4161 417.576,60.8271 405.492,60.8271 C396.697,60.8271 388.394,57.7861 381.49,51.6211" id="Fill-19"></path>
                    <path d="M466.5672,35.2637 C465.9102,28.8517 462.1292,23.8367 455.5522,23.8367 C449.4702,23.8367 445.1962,28.5227 444.2912,35.2637 L466.5672,35.2637 Z M434.4262,38.4687 L434.4262,38.3047 C434.4262,25.8927 443.2222,15.6997 455.6352,15.6997 C469.4452,15.6997 476.4312,26.5507 476.4312,39.0437 C476.4312,39.9497 476.3492,40.8527 476.2672,41.8397 L444.3732,41.8397 C445.4412,48.9097 450.4572,52.8547 456.8682,52.8547 C461.7172,52.8547 465.1712,51.0457 468.6222,47.6757 L474.4592,52.8547 C470.3482,57.7857 464.6772,60.9927 456.7042,60.9927 C444.1282,60.9927 434.4262,51.8677 434.4262,38.4687 L434.4262,38.4687 Z" id="Fill-21"></path>
                    <path d="M486.4598,0 L496.4058,0 L496.4058,23.262 C499.1998,19.234 503.2288,15.699 509.9698,15.699 C519.7508,15.699 525.4218,22.275 525.4218,32.304 L525.4218,60.006 L515.4758,60.006 L515.4758,35.346 C515.4758,28.604 512.1058,24.742 506.1878,24.742 C500.4348,24.742 496.4058,28.77 496.4058,35.511 L496.4058,60.006 L486.4598,60.006 L486.4598,0 Z" id="Fill-23"></path>
                    <path d="M564.3025,44.3867 L564.3025,41.4277 C561.7555,40.4417 558.3845,39.7017 554.4395,39.7017 C548.0275,39.7017 544.2455,42.4147 544.2455,46.9357 L544.2455,47.1007 C544.2455,51.2927 547.9455,53.6767 552.7125,53.6767 C559.2895,53.6767 564.3025,49.8947 564.3025,44.3867 M534.5475,47.5107 L534.5475,47.3467 C534.5475,37.9757 541.8625,33.3727 552.4665,33.3727 C557.3165,33.3727 560.7685,34.1127 564.1395,35.1807 L564.1395,34.1127 C564.1395,27.9477 560.3585,24.6587 553.3705,24.6587 C548.5205,24.6587 544.9035,25.7277 540.9585,27.3717 L538.3275,19.5637 C543.0955,17.4257 547.7815,16.0297 554.6865,16.0297 C561.1785,16.0297 566.0295,17.7547 569.0705,20.8777 C572.2775,24.0017 573.7555,28.6047 573.7555,34.2777 L573.7555,60.0057 L564.0575,60.0057 L564.0575,54.5797 C561.0975,58.1157 556.5755,60.9087 549.9185,60.9087 C541.7815,60.9087 534.5475,56.2237 534.5475,47.5107" id="Fill-25"></path>
                    <path d="M585.6746,16.6045 L595.6206,16.6045 L595.6206,26.3855 C598.3336,19.8915 603.3476,15.4535 610.9926,15.7825 L610.9926,26.3035 L610.4176,26.3035 C601.7036,26.3035 595.6206,31.9745 595.6206,43.4835 L595.6206,60.0055 L585.6746,60.0055 L585.6746,16.6045 Z" id="Fill-27"></path>
                    <path d="M620.1977,60.0054 L630.1437,60.0054 L630.1437,16.6044 L620.1977,16.6044 L620.1977,60.0054 Z M619.7877,9.9454 L630.4747,9.9454 L630.4747,0.4934 L619.7877,0.4934 L619.7877,9.9454 Z" id="Fill-29"></path>
                    <path d="M665.0789,51.6211 L671.1619,44.3871 C676.6689,49.1551 682.2589,51.8681 689.3269,51.8681 C695.5749,51.8681 699.5209,48.9091 699.5209,44.6341 L699.5209,44.4701 C699.5209,40.3591 697.2189,38.1411 686.5329,35.6741 C674.2859,32.7151 667.3809,29.0981 667.3809,18.4941 L667.3809,18.3301 C667.3809,8.4661 675.5999,1.6431 687.0259,1.6431 C695.4109,1.6431 702.0689,4.1921 707.9049,8.8771 L702.4789,16.5211 C697.3019,12.6581 692.1229,10.6031 686.8619,10.6031 C680.9439,10.6031 677.4919,13.6451 677.4919,17.4261 L677.4919,17.5911 C677.4919,22.0281 680.1219,24.0021 691.2189,26.6331 C703.3839,29.5921 709.6319,33.9481 709.6319,43.4831 L709.6319,43.6481 C709.6319,54.4161 701.1649,60.8271 689.0819,60.8271 C680.2859,60.8271 671.9829,57.7861 665.0789,51.6211" id="Fill-31"></path>
                    <path d="M747.2791,44.3867 L747.2791,41.4277 C744.7311,40.4417 741.3611,39.7017 737.4161,39.7017 C731.0051,39.7017 727.2221,42.4147 727.2221,46.9357 L727.2221,47.1007 C727.2221,51.2927 730.9221,53.6767 735.6901,53.6767 C742.2641,53.6767 747.2791,49.8947 747.2791,44.3867 M717.5221,47.5107 L717.5221,47.3467 C717.5221,37.9757 724.8391,33.3727 735.4421,33.3727 C740.2931,33.3727 743.7451,34.1127 747.1151,35.1807 L747.1151,34.1127 C747.1151,27.9477 743.3341,24.6587 736.3461,24.6587 C731.4981,24.6587 727.8811,25.7277 723.9341,27.3717 L721.3031,19.5637 C726.0721,17.4257 730.7571,16.0297 737.6621,16.0297 C744.1561,16.0297 749.0061,17.7547 752.0481,20.8777 C755.2531,24.0017 756.7321,28.6047 756.7321,34.2777 L756.7321,60.0057 L747.0321,60.0057 L747.0321,54.5797 C744.0731,58.1157 739.5521,60.9087 732.8941,60.9087 C724.7571,60.9087 717.5221,56.2237 717.5221,47.5107" id="Fill-32"></path>
                    <path d="M768.6522,16.6045 L778.5982,16.6045 L778.5982,23.1795 C781.3922,19.3165 785.1732,15.6995 791.8322,15.6995 C798.0792,15.6995 802.5182,18.7415 804.8192,23.3435 C808.2712,18.7415 812.8752,15.6995 819.4512,15.6995 C828.9042,15.6995 834.6582,21.7005 834.6582,32.3035 L834.6582,60.0055 L824.7122,60.0055 L824.7122,35.3455 C824.7122,28.4415 821.5062,24.7425 815.9162,24.7425 C810.4912,24.7425 806.6282,28.5225 806.6282,35.5105 L806.6282,60.0055 L796.6812,60.0055 L796.6812,35.2635 C796.6812,28.5225 793.3932,24.7425 787.8862,24.7425 C782.3792,24.7425 778.5982,28.8515 778.5982,35.5105 L778.5982,60.0055 L768.6522,60.0055 L768.6522,16.6045 Z" id="Fill-33"></path>
                    <path d="M881.5125,38.3877 L881.5125,38.2227 C881.5125,29.8377 875.8395,24.3297 869.1005,24.3297 C862.3595,24.3297 856.4415,29.9197 856.4415,38.2227 L856.4415,38.3877 C856.4415,46.6887 862.3595,52.2787 869.1005,52.2787 C875.9225,52.2787 881.5125,46.9357 881.5125,38.3877 L881.5125,38.3877 Z M846.7415,16.6047 L856.6885,16.6047 L856.6885,23.8367 C859.8935,19.3167 864.4145,15.6997 871.4845,15.6997 C881.6765,15.6997 891.6215,23.7547 891.6215,38.2227 L891.6215,38.3877 C891.6215,52.7717 881.7585,60.9087 871.4845,60.9087 C864.2495,60.9087 859.7295,57.2917 856.6885,53.2647 L856.6885,73.1577 L846.7415,73.1577 L846.7415,16.6047 Z" id="Fill-34"></path>
                    <path d="M928.7772,44.3867 L928.7772,41.4277 C926.2282,40.4417 922.8582,39.7017 918.9132,39.7017 C912.5022,39.7017 908.7202,42.4147 908.7202,46.9357 L908.7202,47.1007 C908.7202,51.2927 912.4202,53.6767 917.1872,53.6767 C923.7632,53.6767 928.7772,49.8947 928.7772,44.3867 M899.0212,47.5107 L899.0212,47.3467 C899.0212,37.9757 906.3372,33.3727 916.9402,33.3727 C921.7902,33.3727 925.2422,34.1127 928.6122,35.1807 L928.6122,34.1127 C928.6122,27.9477 924.8322,24.6587 917.8442,24.6587 C912.9952,24.6587 909.3782,25.7277 905.4322,27.3717 L902.8012,19.5637 C907.5692,17.4257 912.2552,16.0297 919.1592,16.0297 C925.6532,16.0297 930.5032,17.7547 933.5452,20.8777 C936.7512,24.0017 938.2302,28.6047 938.2302,34.2777 L938.2302,60.0057 L928.5312,60.0057 L928.5312,54.5797 C925.5722,58.1157 921.0502,60.9087 914.3922,60.9087 C906.2542,60.9087 899.0212,56.2237 899.0212,47.5107" id="Fill-35"></path>
                    <path d="M950.7247,60.0054 L960.6707,60.0054 L960.6707,16.6044 L950.7247,16.6044 L950.7247,60.0054 Z M950.3127,9.9454 L960.9997,9.9454 L960.9997,0.4934 L950.3127,0.4934 L950.3127,9.9454 Z" id="Fill-36"></path>
                </g>
                <g id="Group" transform="translate(457.688600, 32.118800)" fill="#5F51A1">
                    <path d="M87.451,113.2621 C87.451,95.3741 76.902,84.8291 58.693,84.8291 C49.011,84.8291 39.642,86.0131 30.23,88.3421 L30.23,173.4631 C38.454,180.1911 48.161,183.7141 58.693,183.7141 C76.902,183.7141 87.451,173.4631 87.451,155.2471 L87.451,113.2621 Z M0,82.4681 C0,74.2501 5.28,66.9151 12.932,64.5611 C27.596,59.8611 42.856,56.9491 58.693,56.9491 C75.994,56.9491 90.683,62.5241 101.264,73.3901 C111.814,83.9471 117.674,98.5921 117.674,115.6231 L117.674,152.5881 C117.674,169.9151 112.117,185.1901 101.553,195.7401 C90.978,206.5981 78.089,211.6121 60.763,211.6121 C51.088,211.6121 39.336,208.0771 30.23,203.9741 L30.23,258.8771 C30.23,267.3971 23.489,274.1271 15.293,274.1271 C6.748,274.1271 0,267.3971 0,258.8771 L0,82.4681 Z" id="Fill-37"></path>
                    <path d="M230.4012,144.972 L200.1812,144.972 C174.6172,144.972 173.1702,158.761 173.1702,163.775 C173.1702,169.044 174.6172,183.714 200.1812,183.714 C210.1482,183.714 220.9852,182.249 230.4012,179.885 L230.4012,144.972 Z M260.6242,186.079 C260.6242,194.264 255.3222,201.315 247.6992,203.978 C233.3242,208.959 216.6092,211.612 200.1812,211.612 C182.2752,211.612 168.1632,207.225 158.1932,198.68 C148.2342,190.16 142.9462,178.164 142.9462,163.775 C142.9462,149.374 148.2342,138.252 158.1932,130.021 C168.1632,121.534 182.2752,117.1 200.1812,117.1 L230.4012,117.1 L230.4012,106.831 C230.4012,94.493 221.2882,84.829 206.0302,84.829 C192.2382,84.829 184.6082,86.56 174.3292,92.743 C172.0062,94.216 168.7602,95.375 166.1042,95.375 C158.1932,95.375 151.7392,89.5 151.7392,82.208 C151.7392,76.914 154.1012,71.623 159.0822,68.679 C174.9442,59.584 188.7002,56.946 209.8392,56.946 C242.7072,56.946 260.6242,80.722 260.6242,106.831 L260.6242,186.079 Z" id="Fill-38"></path>
                    <path d="M343.3768,159.346 L312.2538,205.136 C309.3348,209.253 304.6488,211.611 299.9588,211.611 C292.0478,211.611 284.7058,204.863 284.7058,196.35 C284.7058,193.416 285.5558,190.476 287.3258,187.83 L325.7698,133.543 L288.1928,80.724 C286.4548,78.065 285.5558,75.16 285.5558,72.194 C285.5558,64.28 292.3178,56.948 300.8188,56.948 C305.5208,56.948 310.2458,59.309 313.1438,63.401 L343.3768,107.733 L373.6068,63.401 C376.5548,58.992 381.5398,56.948 386.2398,56.948 C394.4458,56.948 401.1878,63.703 401.1878,72.194 C401.1878,75.16 400.3098,78.065 398.5498,80.724 L360.9808,133.543 L399.4348,187.83 C401.4858,190.476 402.3718,193.416 402.3718,196.35 C402.3718,204.538 395.3248,211.611 386.8188,211.611 C382.1228,211.611 377.4258,209.574 374.5028,205.136 L343.3768,159.346 Z" id="Fill-39"></path>
                    <path d="M509.7675,120.6136 C509.7675,96.2796 499.7875,84.8306 481.0245,84.8306 C462.5205,84.8306 452.5755,95.9556 452.5755,120.6136 L509.7675,120.6136 Z M452.5755,148.5186 C452.5755,160.5486 454.5835,168.4626 458.4275,173.7346 C463.4055,180.1886 471.0365,183.7126 481.0245,183.7126 C492.1705,183.7126 502.7485,180.4686 512.7185,176.1036 C514.7625,175.2216 516.8035,174.6136 518.8765,174.6136 C526.2045,174.6136 533.2485,180.7976 533.2485,188.4346 C533.2485,193.9636 530.9065,198.9556 525.6005,201.6146 C511.5415,208.3816 496.6015,211.6106 481.0245,211.6106 C463.9665,211.6106 449.3295,206.0426 438.4375,195.1726 C427.8955,184.5686 422.3095,169.9206 422.3095,152.5896 L422.3095,115.6186 C422.3095,98.5906 427.8955,83.9416 438.4375,73.3916 C449.3295,62.5266 463.9665,56.9466 481.0245,56.9466 C498.3185,56.9466 513.0245,62.5266 523.5705,73.3916 C534.1205,83.9416 539.9945,98.5906 539.9945,115.6186 L539.9945,129.4356 C539.9945,140.0076 531.4925,148.5186 520.9355,148.5186 L452.5755,148.5186 Z" id="Fill-40"></path>
                    <path d="M573.1727,15.243 C573.1727,6.738 579.9287,0 588.4407,0 C596.6477,0 603.4027,6.738 603.4027,15.243 L603.4027,196.342 C603.4027,204.855 596.6477,211.611 588.4407,211.611 C579.9287,211.611 573.1727,204.855 573.1727,196.342 L573.1727,15.243 Z" id="Fill-41"></path>
                </g>
            </g>
        </g>
    </g>
</svg>